HIERARCHY
ROOT Character1_Hips
{
  OFFSET 0.11833 14.2511 -0.0476781
  CHANNELS 6 Xposition Yposition Zposition Zrotation Xrotation Yrotation
  JOINT Character1_LeftUpLeg
  {
    OFFSET 1.33984 -0.942851 0
    CHANNELS 6 Xposition Yposition Zposition Zrotation Xrotation Yrotation
    JOINT Character1_LeftLeg
    {
      OFFSET 1.03111 -5.48942 0.514162
      CHANNELS 6 Xposition Yposition Zposition Zrotation Xrotation Yrotation
      JOINT Character1_LeftFoot
      {
        OFFSET 0.584472 -7.37543 -1.61389
        CHANNELS 6 Xposition Yposition Zposition Zrotation Xrotation Yrotation
        JOINT Character1_LeftToeBase
        {
          OFFSET 0.308451 -0.815753 3.43202
          CHANNELS 6 Xposition Yposition Zposition Zrotation Xrotation Yrotation
          End Site
          {
            OFFSET 0 0 0
          }
        }
      }
    }
  }
  JOINT Character1_RightUpLeg
  {
    OFFSET -1.33984 -0.94285 0
    CHANNELS 6 Xposition Yposition Zposition Zrotation Xrotation Yrotation
    JOINT Character1_RightLeg
    {
      OFFSET -1.03111 -5.48942 0.514163
      CHANNELS 6 Xposition Yposition Zposition Zrotation Xrotation Yrotation
      JOINT Character1_RightFoot
      {
        OFFSET -0.584472 -7.37543 -1.61389
        CHANNELS 6 Xposition Yposition Zposition Zrotation Xrotation Yrotation
        JOINT Character1_RightToeBase
        {
          OFFSET -0.308452 -0.815752 3.43202
          CHANNELS 6 Xposition Yposition Zposition Zrotation Xrotation Yrotation
          End Site
          {
            OFFSET 0 0 0
          }
        }
      }
    }
  }
  JOINT Character1_Spine
  {
    OFFSET 0 1.05262 0
    CHANNELS 6 Xposition Yposition Zposition Zrotation Xrotation Yrotation
    JOINT Character1_Spine1
    {
      OFFSET 0 2.01813 0
      CHANNELS 6 Xposition Yposition Zposition Zrotation Xrotation Yrotation
      JOINT Character1_Spine2
      {
        OFFSET 0 2.01813 0
        CHANNELS 6 Xposition Yposition Zposition Zrotation Xrotation Yrotation
        JOINT Character1_LeftShoulder
        {
          OFFSET 1.05263 2.25701 0
          CHANNELS 6 Xposition Yposition Zposition Zrotation Xrotation Yrotation
          JOINT Character1_LeftArm
          {
            OFFSET 1.59242 -0.163556 -0.172858
            CHANNELS 6 Xposition Yposition Zposition Zrotation Xrotation Yrotation
            JOINT Character1_LeftForeArm
            {
              OFFSET 4.24546 -1.87778 -0.3255
              CHANNELS 6 Xposition Yposition Zposition Zrotation Xrotation Yrotation
              JOINT Character1_LeftHand
              {
                OFFSET 2.98615 -1.30582 0.326157
                CHANNELS 6 Xposition Yposition Zposition Zrotation Xrotation Yrotation
                JOINT Character1_LeftHandThumb1
                {
                  OFFSET 0.707167 -0.296378 0.777353
                  CHANNELS 6 Xposition Yposition Zposition Zrotation Xrotation Yrotation
                  JOINT Character1_LeftHandThumb2
                  {
                    OFFSET 0.248522 -0.159515 0.331579
                    CHANNELS 6 Xposition Yposition Zposition Zrotation Xrotation Yrotation
                    JOINT Character1_LeftHandThumb3
                    {
                      OFFSET 0.259195 -0.25406 0.227962
                      CHANNELS 6 Xposition Yposition Zposition Zrotation Xrotation Yrotation
                      JOINT Character1_LeftHandThumb4
                      {
                        OFFSET 0.226666 -0.258213 0.206782
                        CHANNELS 6 Xposition Yposition Zposition Zrotation Xrotation Yrotation
                        End Site
                        {
                          OFFSET 0 0 0
                        }
                      }
                    }
                  }
                }
                JOINT Character1_LeftHandIndex1
                {
                  OFFSET 1.48444 -0.354189 0.611986
                  CHANNELS 6 Xposition Yposition Zposition Zrotation Xrotation Yrotation
                  JOINT Character1_LeftHandIndex2
                  {
                    OFFSET 0.504725 -0.451989 0.0493915
                    CHANNELS 6 Xposition Yposition Zposition Zrotation Xrotation Yrotation
                    JOINT Character1_LeftHandIndex3
                    {
                      OFFSET 0.296442 -0.265512 0.0299122
                      CHANNELS 6 Xposition Yposition Zposition Zrotation Xrotation Yrotation
                      JOINT Character1_LeftHandIndex4
                      {
                        OFFSET 0.197651 -0.217278 0.0208589
                        CHANNELS 6 Xposition Yposition Zposition Zrotation Xrotation Yrotation
                        End Site
                        {
                          OFFSET 0 0 0
                        }
                      }
                    }
                  }
                }
                JOINT Character1_LeftHandMiddle1
                {
                  OFFSET 1.48537 -0.317032 0.21268
                  CHANNELS 6 Xposition Yposition Zposition Zrotation Xrotation Yrotation
                  JOINT Character1_LeftHandMiddle2
                  {
                    OFFSET 0.672059 -0.620936 0.0176339
                    CHANNELS 6 Xposition Yposition Zposition Zrotation Xrotation Yrotation
                    JOINT Character1_LeftHandMiddle3
                    {
                      OFFSET 0.264033 -0.321119 0.00884291
                      CHANNELS 6 Xposition Yposition Zposition Zrotation Xrotation Yrotation
                      JOINT Character1_LeftHandMiddle4
                      {
                        OFFSET 0.180854 -0.241265 0.0065838
                        CHANNELS 6 Xposition Yposition Zposition Zrotation Xrotation Yrotation
                        End Site
                        {
                          OFFSET 0 0 0
                        }
                      }
                    }
                  }
                }
                JOINT Character1_LeftHandRing1
                {
                  OFFSET 1.48599 -0.345214 -0.172737
                  CHANNELS 6 Xposition Yposition Zposition Zrotation Xrotation Yrotation
                  JOINT Character1_LeftHandRing2
                  {
                    OFFSET 0.522197 -0.611355 0.0123871
                    CHANNELS 6 Xposition Yposition Zposition Zrotation Xrotation Yrotation
                    JOINT Character1_LeftHandRing3
                    {
                      OFFSET 0.273491 -0.359549 0.00739137
                      CHANNELS 6 Xposition Yposition Zposition Zrotation Xrotation Yrotation
                      JOINT Character1_LeftHandRing4
                      {
                        OFFSET 0.175076 -0.230164 0.00473078
                        CHANNELS 6 Xposition Yposition Zposition Zrotation Xrotation Yrotation
                        End Site
                        {
                          OFFSET 0 0 0
                        }
                      }
                    }
                  }
                }
                JOINT Character1_LeftHandPinky1
                {
                  OFFSET 1.45006 -0.450851 -0.482262
                  CHANNELS 6 Xposition Yposition Zposition Zrotation Xrotation Yrotation
                  JOINT Character1_LeftHandPinky2
                  {
                    OFFSET 0.289756 -0.353118 -0.0298248
                    CHANNELS 6 Xposition Yposition Zposition Zrotation Xrotation Yrotation
                    JOINT Character1_LeftHandPinky3
                    {
                      OFFSET 0.271225 -0.36969 -0.0280321
                      CHANNELS 6 Xposition Yposition Zposition Zrotation Xrotation Yrotation
                      JOINT Character1_LeftHandPinky4
                      {
                        OFFSET 0.192972 -0.263027 -0.0199432
                        CHANNELS 6 Xposition Yposition Zposition Zrotation Xrotation Yrotation
                        End Site
                        {
                          OFFSET 0 0 0
                        }
                      }
                    }
                  }
                }
              }
            }
          }
        }
        JOINT Character1_RightShoulder
        {
          OFFSET -1.05263 2.25701 0
          CHANNELS 6 Xposition Yposition Zposition Zrotation Xrotation Yrotation
          JOINT Character1_RightArm
          {
            OFFSET -1.59242 -0.16355 -0.172859
            CHANNELS 6 Xposition Yposition Zposition Zrotation Xrotation Yrotation
            JOINT Character1_RightForeArm
            {
              OFFSET -4.24527 -1.87819 -0.32558
              CHANNELS 6 Xposition Yposition Zposition Zrotation Xrotation Yrotation
              JOINT Character1_RightHand
              {
                OFFSET -2.98614 -1.30584 0.326119
                CHANNELS 6 Xposition Yposition Zposition Zrotation Xrotation Yrotation
                JOINT Character1_RightHandThumb1
                {
                  OFFSET -0.707168 -0.296376 0.777353
                  CHANNELS 6 Xposition Yposition Zposition Zrotation Xrotation Yrotation
                  JOINT Character1_RightHandThumb2
                  {
                    OFFSET -0.248522 -0.159517 0.33158
                    CHANNELS 6 Xposition Yposition Zposition Zrotation Xrotation Yrotation
                    JOINT Character1_RightHandThumb3
                    {
                      OFFSET -0.259194 -0.254063 0.227961
                      CHANNELS 6 Xposition Yposition Zposition Zrotation Xrotation Yrotation
                      JOINT Character1_RightHandThumb4
                      {
                        OFFSET -0.226667 -0.258211 0.206782
                        CHANNELS 6 Xposition Yposition Zposition Zrotation Xrotation Yrotation
                        End Site
                        {
                          OFFSET 0 0 0
                        }
                      }
                    }
                  }
                }
                JOINT Character1_RightHandIndex1
                {
                  OFFSET -1.48444 -0.354191 0.611986
                  CHANNELS 6 Xposition Yposition Zposition Zrotation Xrotation Yrotation
                  JOINT Character1_RightHandIndex2
                  {
                    OFFSET -0.504725 -0.451986 0.049391
                    CHANNELS 6 Xposition Yposition Zposition Zrotation Xrotation Yrotation
                    JOINT Character1_RightHandIndex3
                    {
                      OFFSET -0.296442 -0.265513 0.0299126
                      CHANNELS 6 Xposition Yposition Zposition Zrotation Xrotation Yrotation
                      JOINT Character1_RightHandIndex4
                      {
                        OFFSET -0.197651 -0.21728 0.0208599
                        CHANNELS 6 Xposition Yposition Zposition Zrotation Xrotation Yrotation
                        End Site
                        {
                          OFFSET 0 0 0
                        }
                      }
                    }
                  }
                }
                JOINT Character1_RightHandMiddle1
                {
                  OFFSET -1.48537 -0.317029 0.212679
                  CHANNELS 6 Xposition Yposition Zposition Zrotation Xrotation Yrotation
                  JOINT Character1_RightHandMiddle2
                  {
                    OFFSET -0.67206 -0.620937 0.0176342
                    CHANNELS 6 Xposition Yposition Zposition Zrotation Xrotation Yrotation
                    JOINT Character1_RightHandMiddle3
                    {
                      OFFSET -0.264032 -0.321119 0.00884241
                      CHANNELS 6 Xposition Yposition Zposition Zrotation Xrotation Yrotation
                      JOINT Character1_RightHandMiddle4
                      {
                        OFFSET -0.180854 -0.241264 0.00658415
                        CHANNELS 6 Xposition Yposition Zposition Zrotation Xrotation Yrotation
                        End Site
                        {
                          OFFSET 0 0 0
                        }
                      }
                    }
                  }
                }
                JOINT Character1_RightHandRing1
                {
                  OFFSET -1.48599 -0.345215 -0.172738
                  CHANNELS 6 Xposition Yposition Zposition Zrotation Xrotation Yrotation
                  JOINT Character1_RightHandRing2
                  {
                    OFFSET -0.522198 -0.611355 0.0123873
                    CHANNELS 6 Xposition Yposition Zposition Zrotation Xrotation Yrotation
                    JOINT Character1_RightHandRing3
                    {
                      OFFSET -0.273489 -0.359548 0.00739135
                      CHANNELS 6 Xposition Yposition Zposition Zrotation Xrotation Yrotation
                      JOINT Character1_RightHandRing4
                      {
                        OFFSET -0.175077 -0.230166 0.00473123
                        CHANNELS 6 Xposition Yposition Zposition Zrotation Xrotation Yrotation
                        End Site
                        {
                          OFFSET 0 0 0
                        }
                      }
                    }
                  }
                }
                JOINT Character1_RightHandPinky1
                {
                  OFFSET -1.45006 -0.450852 -0.482263
                  CHANNELS 6 Xposition Yposition Zposition Zrotation Xrotation Yrotation
                  JOINT Character1_RightHandPinky2
                  {
                    OFFSET -0.289757 -0.353119 -0.029824
                    CHANNELS 6 Xposition Yposition Zposition Zrotation Xrotation Yrotation
                    JOINT Character1_RightHandPinky3
                    {
                      OFFSET -0.271225 -0.369691 -0.028032
                      CHANNELS 6 Xposition Yposition Zposition Zrotation Xrotation Yrotation
                      JOINT Character1_RightHandPinky4
                      {
                        OFFSET -0.192971 -0.263025 -0.0199443
                        CHANNELS 6 Xposition Yposition Zposition Zrotation Xrotation Yrotation
                        End Site
                        {
                          OFFSET 0 0 0
                        }
                      }
                    }
                  }
                }
              }
            }
          }
        }
        JOINT Character1_Neck
        {
          OFFSET 0 2.01813 0
          CHANNELS 6 Xposition Yposition Zposition Zrotation Xrotation Yrotation
          JOINT Character1_Head
          {
            OFFSET 0 3.0075 0
            CHANNELS 6 Xposition Yposition Zposition Zrotation Xrotation Yrotation
            End Site
            {
              OFFSET 0 0 0
            }
          }
        }
      }
    }
  }
}
MOTION
Frames:	2
Frame Time:	0.0166667
-0.00381017 14.3577 0.0335712 0.175255 0.614867 -8.62747 1.33984 -0.942852 -1.95062e-007 0.158693 -26.6781 -2.60657 1.03111 -5.48942 0.514162 3.99737 16.0701 8.03925 0.584473 -7.37543 -1.61389 7.74313 -12.7776 -1.88124 0.308452 -0.815753 3.43202 -9.58046e-006 7.67121e-006 1.31175e-005 -1.33984 -0.942852 1.9445e-007 -8.49144 7.94771 1.68901 -1.03111 -5.48942 0.514163 6.97168 42.3823 5.51036 -0.584473 -7.37543 -1.61389 -5.55085 22.619 0.487247 -0.308452 -0.815749 3.43202 -2.68131e-013 9.28582e-006 1.90239e-013 2.21954e-008 1.05262 -1.29506e-007 -0.81368 -0.0715575 9.85199 -9.75866e-009 2.01813 -8.45523e-008 0.208671 -0.706737 2.45854 5.55916e-009 2.01813 -8.03711e-008 0.155379 -0.720973 2.45845 1.05262 2.25701 6.42966e-008 -0.557043 -0.0662899 -0.0598247 1.59242 -0.163554 -0.172858 -41.5611 12.2927 34.6013 4.24522 -1.8783 -0.325626 -9.36509 0.481819 -51.3526 2.98614 -1.30585 0.326127 -0.653336 -9.52078 4.11146 0.707166 -0.296377 0.777354 8.35417e-005 1.20949e-005 -3.15096e-006 0.248522 -0.159516 0.331579 -1.31527e-005 4.32491e-006 -6.13331e-006 0.259194 -0.254061 0.227961 -3.83137e-005 6.52652e-006 7.39876e-006 0.226666 -0.258213 0.206783 -8.93401e-005 -3.24631e-006 -4.55299e-006 1.48444 -0.354189 0.611987 8.35417e-005 1.20949e-005 -3.15096e-006 0.504724 -0.451988 0.0493911 -1.31527e-005 4.32491e-006 -6.13331e-006 0.296443 -0.265513 0.0299125 -3.83137e-005 6.52652e-006 7.39876e-006 0.197651 -0.217277 0.0208597 -8.93401e-005 -3.24631e-006 -4.55299e-006 1.48537 -0.317032 0.21268 8.35417e-005 1.20949e-005 -3.15096e-006 0.672059 -0.620936 0.0176344 -1.31527e-005 4.32491e-006 -6.13331e-006 0.264033 -0.321119 0.00884261 -3.83137e-005 6.52652e-006 7.39876e-006 0.180854 -0.241265 0.00658407 -8.93401e-005 -3.24631e-006 -4.55299e-006 1.48599 -0.345215 -0.172738 8.35417e-005 1.20949e-005 -3.15096e-006 0.522197 -0.611355 0.0123875 -1.31527e-005 4.32491e-006 -6.13331e-006 0.273491 -0.359549 0.00739138 -3.83137e-005 6.52652e-006 7.39876e-006 0.175076 -0.230164 0.00473108 -8.93401e-005 -3.24631e-006 -4.55299e-006 1.45006 -0.450852 -0.482263 8.35417e-005 1.20949e-005 -3.15096e-006 0.289755 -0.353117 -0.0298238 -1.31527e-005 4.32491e-006 -6.13331e-006 0.271226 -0.36969 -0.0280323 -3.83137e-005 6.52652e-006 7.39876e-006 0.192971 -0.263027 -0.019944 -8.93401e-005 -3.24631e-006 -4.55299e-006 -1.05263 2.257 6.63735e-008 2.18276e-009 1.56018e-007 4.24462e-006 -1.59242 -0.163552 -0.172859 18.9497 -5.19594 29.7828 -4.24531 -1.87814 -0.325423 15.5876 -33.8091 78.8356 -2.98612 -1.30589 0.326131 0.728572 -12.4354 -5.36825 -0.707168 -0.296376 0.777353 -3.5349e-005 7.46042e-006 -2.07232e-005 -0.248523 -0.159517 0.33158 0.000141757 4.08785e-005 1.36015e-006 -0.259195 -0.254062 0.227962 -0.000179471 2.9303e-005 -3.79399e-005 -0.226667 -0.258212 0.206781 -3.71773e-005 -1.27584e-005 2.26361e-005 -1.48444 -0.35419 0.611987 -3.5349e-005 7.46042e-006 -2.07232e-005 -0.504724 -0.451987 0.0493903 0.000141757 4.08785e-005 1.36015e-006 -0.296443 -0.265512 0.0299133 -0.000179471 2.9303e-005 -3.79399e-005 -0.197651 -0.217279 0.0208595 -3.71773e-005 -1.27584e-005 2.26361e-005 -1.48537 -0.31703 0.212679 -3.5349e-005 7.46042e-006 -2.07232e-005 -0.67206 -0.620937 0.0176345 0.000141757 4.08785e-005 1.36015e-006 -0.264031 -0.32112 0.00884195 -0.000179471 2.9303e-005 -3.79399e-005 -0.180854 -0.241264 0.00658465 -3.71773e-005 -1.27584e-005 2.26361e-005 -1.48599 -0.345214 -0.172738 -3.5349e-005 7.46042e-006 -2.07232e-005 -0.522197 -0.611355 0.0123864 0.000141757 4.08785e-005 1.36015e-006 -0.27349 -0.359549 0.00739165 -0.000179471 2.9303e-005 -3.79399e-005 -0.175076 -0.230166 0.00473094 -3.71773e-005 -1.27584e-005 2.26361e-005 -1.45006 -0.450851 -0.482264 -3.5349e-005 7.46042e-006 -2.07232e-005 -0.289757 -0.35312 -0.0298243 0.000141757 4.08785e-005 1.36015e-006 -0.271226 -0.369689 -0.0280307 -0.000179471 2.9303e-005 -3.79399e-005 -0.192971 -0.263025 -0.0199445 -3.71773e-005 -1.27584e-005 2.26361e-005 -1.05339e-008 2.01813 2.05926e-007 4.29418e-006 1.89343e-007 -5.0565 9.14899e-009 3.00749 -2.97326e-007 -1.1935e-007 -6.03482e-008 -5.05631 
-0.0114817 14.3321 0.0212289 0.508603 0.526605 -7.80153 1.33984 -0.942849 -1.95061e-007 -0.142619 -27.5126 -3.03611 1.03111 -5.48942 0.514161 3.12761 18.69 8.0834 0.584472 -7.37543 -1.61389 8.14353 -9.74004 -1.88805 0.308452 -0.815753 3.43202 -9.58351e-006 6.58804e-006 1.31172e-005 -1.33984 -0.942851 1.94451e-007 -8.00596 5.10054 1.77433 -1.03111 -5.48942 0.514162 7.26814 45.279 3.62548 -0.584473 -7.37544 -1.61389 -5.25449 12.2637 0.720327 -0.308451 -0.815751 3.43202 -2.6806e-013 9.30326e-006 1.90064e-013 2.76677e-008 1.05262 -1.29505e-007 -1.13352 -0.0806881 8.90177 -9.75891e-009 2.01813 -8.45532e-008 0.18644 -0.636474 2.21256 5.55809e-009 2.01813 -8.03712e-008 0.13845 -0.649184 2.21251 1.05262 2.257 6.42988e-008 -0.557043 -0.0662899 -0.0598247 1.59242 -0.163554 -0.172858 -41.8549 11.8919 29.8851 4.24524 -1.87827 -0.325585 -9.01374 -0.868923 -48.0349 2.98614 -1.30584 0.32615 -0.642985 -9.25506 3.99679 0.707166 -0.296378 0.777354 8.01493e-005 1.21977e-005 -3.1516e-006 0.248521 -0.159515 0.331579 -3.01866e-005 4.30608e-006 -6.19089e-006 0.259195 -0.254061 0.227961 -3.72171e-005 6.5266e-006 7.3991e-006 0.226667 -0.258213 0.206783 -8.93387e-005 -3.16797e-006 -4.51568e-006 1.48444 -0.354189 0.611987 8.01493e-005 1.21977e-005 -3.1516e-006 0.504725 -0.451988 0.0493911 -3.01866e-005 4.30608e-006 -6.19089e-006 0.296442 -0.265512 0.0299125 -3.72171e-005 6.5266e-006 7.3991e-006 0.197651 -0.217278 0.0208597 -8.93387e-005 -3.16797e-006 -4.51568e-006 1.48537 -0.317031 0.212679 8.01493e-005 1.21977e-005 -3.1516e-006 0.67206 -0.620936 0.0176344 -3.01866e-005 4.30608e-006 -6.19089e-006 0.264032 -0.321119 0.00884262 -3.72171e-005 6.5266e-006 7.3991e-006 0.180854 -0.241265 0.00658409 -8.93387e-005 -3.16797e-006 -4.51568e-006 1.48599 -0.345215 -0.172738 8.01493e-005 1.21977e-005 -3.1516e-006 0.522197 -0.611355 0.0123875 -3.01866e-005 4.30608e-006 -6.19089e-006 0.273491 -0.359548 0.00739138 -3.72171e-005 6.5266e-006 7.3991e-006 0.175076 -0.230164 0.00473107 -8.93387e-005 -3.16797e-006 -4.51568e-006 1.45006 -0.450851 -0.482263 8.01493e-005 1.21977e-005 -3.1516e-006 0.289756 -0.353117 -0.0298238 -3.01866e-005 4.30608e-006 -6.19089e-006 0.271226 -0.36969 -0.0280322 -3.72171e-005 6.5266e-006 7.3991e-006 0.192971 -0.263027 -0.019944 -8.93387e-005 -3.16797e-006 -4.51568e-006 -1.05262 2.257 6.63758e-008 2.18018e-009 1.55992e-007 4.24442e-006 -1.59242 -0.163552 -0.172859 21.5223 -3.32348 28.4031 -4.24532 -1.87811 -0.325418 13.9395 -32.5178 72.112 -2.98613 -1.30586 0.32614 0.702352 -11.1727 -4.82348 -0.707168 -0.296376 0.777353 -3.54295e-005 7.46457e-006 -2.07232e-005 -0.248522 -0.159517 0.33158 0.000131114 3.66244e-005 1.36952e-006 -0.259195 -0.254063 0.227961 -0.000169251 2.45326e-005 -3.79393e-005 -0.226667 -0.258211 0.206783 -3.71772e-005 -1.27584e-005 2.26358e-005 -1.48444 -0.35419 0.611987 -3.54295e-005 7.46457e-006 -2.07232e-005 -0.504724 -0.451987 0.0493901 0.000131114 3.66244e-005 1.36952e-006 -0.296442 -0.265512 0.0299132 -0.000169251 2.45326e-005 -3.79393e-005 -0.197651 -0.21728 0.0208596 -3.71772e-005 -1.27584e-005 2.26358e-005 -1.48537 -0.31703 0.212679 -3.54295e-005 7.46457e-006 -2.07232e-005 -0.67206 -0.620937 0.0176345 0.000131114 3.66244e-005 1.36952e-006 -0.264031 -0.32112 0.00884207 -0.000169251 2.45326e-005 -3.79393e-005 -0.180854 -0.241265 0.0065847 -3.71772e-005 -1.27584e-005 2.26358e-005 -1.48599 -0.345214 -0.172737 -3.54295e-005 7.46457e-006 -2.07232e-005 -0.522197 -0.611355 0.0123867 0.000131114 3.66244e-005 1.36952e-006 -0.273489 -0.359549 0.00739146 -0.000169251 2.45326e-005 -3.79393e-005 -0.175077 -0.230165 0.00473136 -3.71772e-005 -1.27584e-005 2.26358e-005 -1.45006 -0.450851 -0.482262 -3.54295e-005 7.46457e-006 -2.07232e-005 -0.289757 -0.353119 -0.0298247 0.000131114 3.66244e-005 1.36952e-006 -0.271225 -0.369689 -0.0280312 -0.000169251 2.45326e-005 -3.79393e-005 -0.192971 -0.263025 -0.0199444 -3.71772e-005 -1.27584e-005 2.26358e-005 -1.05334e-008 2.01813 2.05926e-007 4.29253e-006 1.89483e-007 -4.55086 9.14894e-009 3.0075 -2.97325e-007 -1.18807e-007 -6.03949e-008 -4.55068 
